<?xml version="1.0" encoding="UTF-8" standalone="no"?>
<svg
   xmlns:dc="http://purl.org/dc/elements/1.1/"
   xmlns:cc="http://creativecommons.org/ns#"
   xmlns:rdf="http://www.w3.org/1999/02/22-rdf-syntax-ns#"
   xmlns:svg="http://www.w3.org/2000/svg"
   xmlns="http://www.w3.org/2000/svg"
   viewBox="0 0 450 422.95001"
   height="422.95001"
   width="450"
   xml:space="preserve"
   version="1.1"
   id="svg2"><metadata
     id="metadata8"><rdf:RDF><cc:Work
         rdf:about=""><dc:format>image/svg+xml</dc:format><dc:type
           rdf:resource="http://purl.org/dc/dcmitype/StillImage" /></cc:Work></rdf:RDF></metadata><defs
     id="defs6" /><g
     transform="matrix(1.25,0,0,-1.25,0,422.95)"
     id="g10"><g
       transform="scale(0.1,0.1)"
       id="g12"><path
         id="path14"
         style="fill:#ffffff;fill-opacity:1;fill-rule:nonzero;stroke:none"
         d="m 1822.27,37.3203 c -9.09,0 -18.01,0.2617 -26.94,0.6914 l -0.02,0 c -5.69,-0.4414 -11.64,-0.6914 -17.59,-0.6914 -208.85,0 -342.9,94.7617 -472.52,186.4097 -89.51,63.239 -173.97,122.95 -273.49,139.52 -48.558,8.039 -96.894,12.121 -143.605,12.121 -84.148,0 -150.535,-12.992 -199.003,-22.473 -29.454,-5.757 -54.86,-10.707 -74.168,-10.707 -20.176,0 -42.036,4.36 -51.536,36.821 -8.257,28.117 -14.226,55.359 -19.972,81.707 -14.801,67.812 -25.313,109.519 -53.735,113.883 C 158.449,625.762 63.6406,695.531 42.5,745.031 c -2.9922,7.078 -4.6914,14.168 -5.0977,21.188 -1.0742,19.019 12.3985,35.812 31.1915,38.883 509.2032,83.847 737.5432,604.288 747.0232,626.388 0.262,0.61 0.535,1.2 0.817,1.81 31.168,63.16 37.265,117.98 18.199,162.92 -34.942,82.35 -148.91,118.55 -224.356,142.48 -18.457,5.84 -35.957,11.36 -49.757,16.81 -150.54,59.52 -163.067,120.6 -157.153,151.74 10.086,53.05 80.988,90.02 138.324,90.02 15.723,0 29.563,-2.79 41.204,-8.22 67.718,-31.73 128.75,-47.8 181.41,-47.8 72.765,0 104.527,30.58 108.41,34.59 -1.852,34.46 -4.141,70.45 -6.488,107.59 -15.168,240.74 -33.961,539.88 42.207,710.63 228.266,511.83 712.346,551.59 855.266,551.59 3.66,0 62.66,0.62 62.66,0.62 l 8.46,0.04 c 143.25,0 628.38,-39.83 856.78,-551.94 76.18,-170.84 57.34,-470.23 42.15,-710.79 l -0.63,-10.46 c -2.1,-33.5 -4.14,-66.06 -5.84,-97.23 3.64,-3.71 32.85,-31.84 98.82,-34.36 l 0.07,0 c 50.13,1.92 107.75,17.9 170.98,47.52 18.53,8.65 39.11,10.47 53.12,10.47 21.4,0 43.09,-4.14 61.1,-11.65 l 1.09,-0.45 c 51.15,-18.12 84.65,-53.97 85.37,-91.43 0.66,-35.27 -26.26,-88.3 -158.35,-140.48 -13.69,-5.38 -31.19,-10.94 -49.72,-16.81 -75.52,-23.97 -189.46,-60.13 -224.38,-142.47 -19.08,-44.91 -12.97,-99.7 18.18,-162.89 0.28,-0.61 0.6,-1.2 0.84,-1.85 9.47,-22.08 237.62,-542.369 747.04,-626.318 18.81,-3.102 32.24,-19.871 31.21,-38.91 -0.43,-7.133 -2.16,-14.321 -5.21,-21.301 -21.01,-49.152 -115.74,-118.832 -447.1,-170.031 -27.07,-4.16 -37.56,-39.43 -53.72,-113.399 -5.87,-26.922 -11.82,-53.359 -20.01,-81.172 -7.05,-24.129 -22.09,-35.418 -47.39,-35.418 l -4.12,0 c -17.56,0 -42.52,3.141 -74.15,9.348 -56.1,10.973 -119,21.082 -199.02,21.082 -46.73,0 -95.09,-4.082 -143.68,-12.121 C 2468.84,346.68 2384.43,287.09 2295.09,223.93 2165.21,132.082 2031.18,37.3203 1822.27,37.3203" /><path
         id="path16"
         style="fill:#11100e;fill-opacity:1;fill-rule:nonzero;stroke:none"
         d="m 1834.82,3383.62 -0.15,0 c -3.1,0 -6.02,0 -8.79,-0.06 l 0,0 c 0,0 -57.71,-0.57 -62.29,-0.57 -148.51,0 -651.81,-41.37 -889.27,-573.74 -79.859,-179.11 -60.715,-483.3 -45.359,-727.74 1.809,-28.82 3.73,-58.74 5.375,-87.66 -12.285,-6.8 -34.719,-15.26 -70.031,-15.26 -47.133,0 -102.844,14.87 -165.559,44.27 -16.644,7.8 -35.844,11.7 -57.055,11.7 -73.449,0 -161.308,-48.32 -174.984,-120.35 -9.867,-51.86 13.34,-127.53 180.082,-193.38 15.039,-5.95 33.133,-11.68 52.238,-17.72 68.883,-21.88 173.004,-54.92 201.254,-121.47 14.637,-34.48 8.797,-78.86 -17.312,-131.86 -0.574,-1.2 -1.145,-2.38 -1.664,-3.62 C 772.141,1424.84 551.777,922.488 62.5313,841.949 24.9102,835.742 -1.97266,802.18 0.113281,764.121 0.761719,752.789 3.44141,741.52 8.07813,730.582 44.793,644.742 199.707,581.84 481.73,538.07 c 9.422,-12.75 19.215,-57.781 25.219,-85.218 5.899,-27.071 11.977,-54.993 20.641,-84.442 8.5,-28.961 30.582,-63.57 87.344,-63.57 22.929,0 49.984,5.289 81.3,11.441 46.989,9.18 111.329,21.75 191.871,21.75 44.661,0 90.965,-3.883 137.585,-11.609 91,-15.172 168.33,-69.82 257.85,-133.113 C 1411.78,102.641 1556.99,0 1777.72,0 c 6.06,0 12.16,0.179688 18.19,0.628906 C 1803.07,0.320313 1812.37,0 1822.27,0 c 220.79,0 365.99,102.66 494.13,193.281 89.72,63.367 167,118.008 258,133.141 46.54,7.726 92.85,11.609 137.53,11.609 76.84,0 137.64,-9.781 191.87,-20.371 33.98,-6.648 61.32,-10.031 81.3,-10.031 l 2.09,-0.027 2.03,0 c 41.92,0 71.51,22.148 83.24,62.359 8.5,28.84 14.6,56.039 20.62,83.57 5.97,27.367 15.74,72.188 25.13,84.867 282.1,43.793 436.98,106.59 473.62,192.071 4.71,10.941 7.41,22.301 8.05,33.722 2.13,38.079 -24.78,71.598 -62.38,77.789 -489.47,80.68 -709.65,582.91 -718.79,604.22 -0.52,1.22 -1.07,2.44 -1.68,3.62 -26.13,52.99 -31.91,97.34 -17.3,131.82 28.24,66.55 132.32,99.59 201.2,121.43 19.27,6.12 37.38,11.88 52.28,17.76 122.02,48.19 183.24,107.37 181.95,175.91 -1.06,53.82 -42.99,101.84 -109.61,125.64 l -0.21,0.08 c -22.41,9.29 -49.02,14.37 -75.07,14.37 -17.81,0 -44.24,-2.42 -68.92,-13.97 -58.04,-27.2 -110.2,-41.98 -155.18,-43.99 -29.82,1.38 -49.33,8.9 -60.46,15.04 1.41,24.79 3,50.33 4.68,77.01 l 0.63,10.37 c 15.43,244.6 34.59,549.06 -45.35,728.29 -237.54,532.61 -741.92,574.04 -890.85,574.04 l 0,0 z m 0,-74.63 c 135.6,-0.02 602.62,-36.4 822.71,-529.83 72.45,-162.43 53.92,-456.76 39.01,-693.23 -2.37,-37.49 -4.66,-73.84 -6.53,-108.6 l -0.81,-14.91 9.99,-11.1 c 4,-4.49 41.69,-43.85 125.45,-47.1 l 1.4,-0.04 1.37,0.04 c 55.38,2.09 117.8,19.25 185.59,51.03 9.94,4.68 23.23,6.95 37.27,6.95 16.04,0 33.04,-3.01 47.08,-8.92 l 2.1,-0.86 c 35.52,-12.43 60.65,-35.93 61.07,-57.15 0.21,-12.06 -8.81,-55.28 -134.75,-105.02 -12.31,-4.88 -28.53,-10.02 -47.3,-15.95 -81.95,-26.05 -205.77,-65.3 -247.45,-163.45 -23.49,-55.39 -17.1,-120.66 19.06,-194.03 14.9,-34.72 248.78,-561.738 775.28,-648.488 -0.15,-2.441 -0.74,-5.211 -2.16,-8.422 -8.94,-21.031 -65.67,-93.59 -418.55,-148.058 -55.25,-8.52 -68.79,-70.391 -84.5,-142.372 -5.6,-25.742 -11.42,-51.699 -19.34,-78.609 -2.39,-8.133 -2.85,-8.609 -11.59,-8.609 -1.2,0 -2.55,0 -4.12,0 l 0,0 c -15.65,0 -39.45,3.258 -67,8.648 -50.02,9.781 -118.61,21.77 -206.17,21.77 -48.88,0 -99.26,-4.25 -149.76,-12.621 -107.99,-17.977 -195.85,-80.118 -288.9,-145.848 -124.89,-88.32 -253.99,-179.5821 -451,-179.5821 -8.55,0 -16.98,0.2813 -25.4,0.6797 l -2.22,0.1211 -2.24,-0.2109 c -4.84,-0.3985 -9.7,-0.5899 -14.69,-0.5899 -196.97,0 -326.12,91.2621 -451,179.5511 -93.01,65.761 -180.89,127.902 -288.86,145.879 -50.512,8.371 -100.88,12.621 -149.755,12.621 -87.546,0 -156.132,-13.34 -206.191,-23.141 -27.531,-5.41 -51.363,-10.027 -66.98,-10.027 -12.766,0 -13.028,0.738 -15.723,9.957 -7.91,26.922 -13.711,53.582 -19.328,79.293 -15.727,71.988 -29.324,134.218 -84.5,142.726 C 142.465,665.992 85.7773,738.73 76.8125,759.699 c -1.4219,3.262 -2.0117,6.102 -2.1406,8.582 526.4611,86.731 760.3481,613.689 775.2381,648.499 36.164,73.41 42.594,138.64 19.09,194 -41.648,98.18 -165.484,137.47 -247.449,163.52 -18.774,5.92 -34.996,11.07 -47.305,15.95 -106.41,42.02 -139.098,84.35 -134.203,110.01 5.637,29.59 56.91,59.67 101.648,59.67 10.071,0 18.864,-1.61 25.387,-4.68 72.692,-34.02 139.078,-51.33 197.227,-51.33 91.519,0 132.261,42.59 136.586,47.42 l 9.925,11.08 -0.812,14.86 c -1.867,34.7 -4.141,71.03 -6.524,108.5 -14.894,236.47 -33.41,530.6 39.04,693.07 219.24,491.61 683.97,529.49 821.18,529.49 3.38,0 63.01,0.59 63.01,0.59 2.57,0.04 5.24,0.06 8.11,0.06" /></g></g></svg>